<?xml version="1.0" standalone="no"?>
<!DOCTYPE svg PUBLIC "-//W3C//DTD SVG 20010904//EN"
 "http://www.w3.org/TR/2001/REC-SVG-20010904/DTD/svg10.dtd">
<svg version="1.0" xmlns="http://www.w3.org/2000/svg"
 width="700.000000pt" height="700.000000pt" viewBox="0 0 700.000000 700.000000"
 preserveAspectRatio="xMidYMid meet">
<metadata>
Created by potrace 1.14, written by Peter Selinger 2001-2017
</metadata>
<g transform="translate(0.000000,700.000000) scale(0.100000,-0.100000)"
fill="#000000" stroke="none">
<path d="M0 3500 l0 -3500 3500 0 3500 0 0 3500 0 3500 -3500 0 -3500 0 0
-3500z m4788 1894 c49 -20 90 -60 113 -109 18 -38 19 -107 19 -1775 0 -1193
-3 -1747 -11 -1773 -6 -21 -26 -56 -45 -77 -69 -76 85 -71 -1876 -68 l-1756 3
-44 31 c-25 19 -53 52 -68 80 l-25 48 0 1746 0 1745 23 47 c23 46 69 89 114
108 14 5 729 9 1771 9 1558 1 1752 -1 1785 -15z"/>
<path d="M1460 3506 l0 -796 195 0 195 0 0 244 0 244 198 5 c141 3 214 9 257
21 253 70 394 258 395 526 0 254 -131 439 -365 517 l-80 27 -397 4 -398 3 0
-795z m705 460 c87 -37 134 -111 135 -212 0 -111 -40 -181 -126 -221 -44 -20
-74 -25 -188 -30 l-136 -6 0 248 0 248 138 -5 c98 -4 148 -10 177 -22z"/>
<path d="M2815 3853 c19 -65 295 -1130 295 -1137 0 -4 93 -5 207 -4 l208 3 91
340 c50 187 94 340 99 340 4 0 49 -154 99 -342 l91 -343 205 0 206 0 155 595
155 595 -191 0 -192 0 -26 -127 c-14 -71 -50 -242 -78 -381 -29 -138 -54 -250
-57 -247 -3 3 -44 172 -92 377 l-87 373 -188 0 -188 0 -85 -378 c-47 -207 -89
-374 -93 -370 -4 5 -42 176 -85 381 l-77 372 -193 0 -193 0 14 -47z"/>
</g>
</svg>
