<svg width="2056" height="2740" viewBox="0 0 2056 2740" fill="none" xmlns="http://www.w3.org/2000/svg">
<defs>
  <clipPath id="c1" clipPathUnits="objectBoundingBox">
    <path d="M0.023,0 C0.016,0,0.013,0,0.009,0.002 C0.006,0.003,0.004,0.005,0.002,0.007 C0.001,0.01,0,0.012,0,0.017 V0.983 C0,0.988,0.001,0.99,0.002,0.993 C0.004,0.995,0.006,0.997,0.009,0.998 C0.013,1,0.016,1,0.023,1 H0.977 C0.984,1,0.987,1,0.991,0.998 C0.994,0.997,0.996,0.995,0.998,0.993 C0.999,0.99,1,0.988,1,0.983 V0.017 C1,0.012,0.999,0.01,0.998,0.007 C0.996,0.005,0.994,0.003,0.991,0.002 C0.987,0,0.984,0,0.977,0 H0.023" />
  </clipPath>
</defs>
</svg>
