<svg width="979" height="1934" viewBox="0 0 979 1934" fill="none" xmlns="http://www.w3.org/2000/svg">
<path d="M181.401 0L796.599 0C841.049 0 866.959 5.00339 894.023 19.4773C919.922 33.3282 940.672 54.0784 954.523 79.9774C968.997 107.041 974 132.951 974 177.401V1756.6C974 1801.05 968.997 1826.96 954.523 1854.02C940.672 1879.92 919.922 1900.67 894.023 1914.52C866.959 1929 841.049 1934 796.599 1934H181.401C136.951 1934 111.041 1929 83.9774 1914.52C58.0784 1900.67 37.3282 1879.92 23.4773 1854.02C9.00339 1826.96 4 1801.05 4 1756.6V177.401C4 132.951 9.00339 107.041 23.4773 79.9774C37.3282 54.0784 58.0784 33.3282 83.9774 19.4773C111.041 5.00339 136.951 0 181.401 0Z" fill="#58575C"/>
<mask id="mask0" mask-type="alpha" maskUnits="userSpaceOnUse" x="4" y="0" width="970" height="1934">
<path d="M181.401 0L796.599 0C841.049 0 866.959 5.00339 894.023 19.4773C919.922 33.3282 940.672 54.0784 954.523 79.9774C968.997 107.041 974 132.951 974 177.401V1756.6C974 1801.05 968.997 1826.96 954.523 1854.02C940.672 1879.92 919.922 1900.67 894.023 1914.52C866.959 1929 841.049 1934 796.599 1934H181.401C136.951 1934 111.041 1929 83.9774 1914.52C58.0784 1900.67 37.3282 1879.92 23.4773 1854.02C9.00339 1826.96 4 1801.05 4 1756.6V177.401C4 132.951 9.00339 107.041 23.4773 79.9774C37.3282 54.0784 58.0784 33.3282 83.9774 19.4773C111.041 5.00339 136.951 0 181.401 0Z" fill="white"/>
</mask>
<g mask="url(#mask0)">
<g filter="url(#filter0_ii)">
<path d="M181.401 0L796.599 0C841.049 0 866.959 5.00339 894.023 19.4773C919.922 33.3282 940.672 54.0784 954.523 79.9774C968.997 107.041 974 132.951 974 177.401V1756.6C974 1801.05 968.997 1826.96 954.523 1854.02C940.672 1879.92 919.922 1900.67 894.023 1914.52C866.959 1929 841.049 1934 796.599 1934H181.401C136.951 1934 111.041 1929 83.9774 1914.52C58.0784 1900.67 37.3282 1879.92 23.4773 1854.02C9.00339 1826.96 4 1801.05 4 1756.6V177.401C4 132.951 9.00339 107.041 23.4773 79.9774C37.3282 54.0784 58.0784 33.3282 83.9774 19.4773C111.041 5.00339 136.951 0 181.401 0Z" fill="#58575C"/>
</g>
<g filter="url(#filter1_d)">
<path d="M181.401 20L796.599 20C837.949 20 860.77 24.3744 884.591 37.1135C907.004 49.1005 924.9 66.9957 936.886 89.4094C949.626 113.23 954 136.051 954 177.401V1756.6C954 1797.95 949.626 1820.77 936.886 1844.59C924.9 1867 907.004 1884.9 884.591 1896.89C860.77 1909.63 837.949 1914 796.599 1914H181.401C140.051 1914 117.23 1909.63 93.4094 1896.89C70.9957 1884.9 53.1005 1867 41.1135 1844.59C28.3744 1820.77 24 1797.95 24 1756.6V177.401C24 136.051 28.3744 113.23 41.1135 89.4094C53.1005 66.9957 70.9957 49.1005 93.4094 37.1135C117.23 24.3744 140.051 20 181.401 20Z" fill="url(#paint0_linear)"/>
</g>
<path d="M181.401 30L796.599 30C836.52 30 857.751 34.0999 879.875 45.9317C900.546 56.9866 917.013 73.4544 928.068 94.1254C939.9 116.249 944 137.48 944 177.401V1756.6C944 1796.52 939.9 1817.75 928.068 1839.87C917.013 1860.55 900.546 1877.01 879.875 1888.07C857.751 1899.9 836.52 1904 796.599 1904H181.401C141.48 1904 120.249 1899.9 98.1254 1888.07C77.4544 1877.01 60.9866 1860.55 49.9317 1839.87C38.0999 1817.75 34 1796.52 34 1756.6V177.401C34 137.48 38.0999 116.249 49.9317 94.1254C60.9866 73.4544 77.4544 56.9866 98.1254 45.9317C120.249 34.0999 141.48 30 181.401 30Z" fill="url(#paint1_linear)"/>
<path d="M181.401 42L796.599 42C836.52 42 857.751 46.0474 879.875 57.7276C900.546 68.641 917.013 84.8979 928.068 105.304C939.9 127.144 944 148.103 944 187.513V1746.49C944 1785.9 939.9 1806.86 928.068 1828.7C917.013 1849.1 900.546 1865.36 879.875 1876.27C857.751 1887.95 836.52 1892 796.599 1892H181.401C141.48 1892 120.249 1887.95 98.1254 1876.27C77.4544 1865.36 60.9866 1849.1 49.9317 1828.7C38.0999 1806.86 34 1785.9 34 1746.49V187.513C34 148.103 38.0999 127.144 49.9317 105.304C60.9866 84.8979 77.4544 68.641 98.1254 57.7276C120.249 46.0474 141.48 42 181.401 42Z" fill="black"/>
</g>
<g filter="url(#filter2_i)">
<path fill-rule="evenodd" clip-rule="evenodd" d="M450.4 1931C469.84 1931 509.996 1931 529.6 1931C529.735 1931 529.869 1931 530.003 1931C534.913 1931.04 534.41 1934 529.499 1934H450.501C445.59 1934 445.087 1931.04 449.997 1931C450.131 1931 450.265 1931 450.4 1931Z" fill="#222222"/>
</g>
<g filter="url(#filter3_i)">
<path fill-rule="evenodd" clip-rule="evenodd" d="M98.1254 1888.07C77.4544 1877.01 60.9866 1860.55 49.9317 1839.87C38.0999 1817.75 34 1796.52 34 1756.6V177.401C34 137.48 38.0999 116.249 49.9317 94.1254C57.737 79.5306 68.2408 67.0311 81.0171 57.0527C81.8506 56.4018 47.8379 82.5527 47.8379 157.401C47.8379 525.877 47.8379 1760.15 47.8379 1776.6C47.8379 1865.46 101.801 1890.03 98.1254 1888.07Z" fill="white" fill-opacity="0.8"/>
</g>
<g filter="url(#filter4_i)">
<path fill-rule="evenodd" clip-rule="evenodd" d="M879.88 1888.07C900.55 1877.01 917.018 1860.55 928.073 1839.87C939.905 1817.75 944.005 1796.52 944.005 1756.6V177.401C944.005 137.48 939.905 116.249 928.073 94.1254C920.268 79.5306 909.764 67.0311 896.988 57.0527C896.154 56.4018 930.167 82.5527 930.167 157.401C930.167 525.877 930.167 1760.15 930.167 1776.6C930.167 1865.46 876.204 1890.03 879.88 1888.07Z" fill="white" fill-opacity="0.8"/>
</g>
<rect opacity="0.602808" x="4" y="190" width="20" height="19" fill="#1C1C1D"/>
<rect opacity="0.602808" x="954" y="190" width="20" height="19" fill="#1C1C1D"/>
<rect opacity="0.602808" x="4" y="1725" width="20" height="19" fill="#1C1C1D"/>
<rect opacity="0.602808" x="954" y="1725" width="20" height="19" fill="#1C1C1D"/>
<g clip-path="url(#clip0)">
<g filter="url(#filter5_ii)">
<path fill-rule="evenodd" clip-rule="evenodd" d="M5.07709 264C2.27309 264 0 266.288 0 269.11V331.89C0 334.712 2.27309 337 5.07709 337H7.97828C7.97828 333.16 8.02715 267.753 7.97828 264H5.07709Z" fill="url(#paint2_linear)"/>
</g>
<g filter="url(#filter6_ii)">
<path fill-rule="evenodd" clip-rule="evenodd" d="M5.07709 395C3.42635 395.4 1.44688 396.424 0.389914 397.879C0.172205 398.179 0 399.127 0 399.401C0 413.159 0 455.062 0 525.11C0 525.403 0.242385 526.881 0.390796 527.24C1.24612 529.306 2.73226 529.806 5.07709 531H7.97828C7.97828 527.235 8.02715 398.68 7.97828 395H5.07709Z" fill="url(#paint3_linear)"/>
</g>
<g filter="url(#filter7_ii)">
<path fill-rule="evenodd" clip-rule="evenodd" d="M5.07709 563C3.42635 563.4 1.44688 564.424 0.389914 565.879C0.172205 566.179 0 567.127 0 567.401C0 581.159 0 623.062 0 693.11C0 693.403 0.242385 694.881 0.390796 695.24C1.24612 697.306 2.73226 697.806 5.07709 699H7.97828C7.97828 695.235 8.02715 566.68 7.97828 563H5.07709Z" fill="url(#paint4_linear)"/>
</g>
<g filter="url(#filter8_ii)">
<path fill-rule="evenodd" clip-rule="evenodd" d="M973.923 441C975.574 441.396 977.553 442.41 978.61 443.85C978.828 444.147 979 445.086 979 445.357C979 458.977 979 579.823 979 649.169C979 649.459 978.758 650.922 978.609 651.277C977.754 653.323 976.268 653.818 973.923 655H971.022C971.022 651.273 970.973 444.643 971.022 441H973.923Z" fill="url(#paint5_linear)"/>
<path fill-rule="evenodd" clip-rule="evenodd" d="M973.923 441C975.574 441.396 977.553 442.41 978.61 443.85C978.828 444.147 979 445.086 979 445.357C979 458.977 979 579.823 979 649.169C979 649.459 978.758 650.922 978.609 651.277C977.754 653.323 976.268 653.818 973.923 655H971.022C971.022 651.273 970.973 444.643 971.022 441H973.923Z" fill="url(#paint6_linear)" fill-opacity="0.4"/>
</g>
</g>
<g opacity="0.801364" clip-path="url(#clip1)">
<rect x="433" y="77" width="112" height="18" rx="9" fill="#1D1C1C"/>
<mask id="mask1" mask-type="alpha" maskUnits="userSpaceOnUse" x="433" y="77" width="112" height="18">
<rect x="433" y="77" width="112" height="18" rx="9" fill="white"/>
</mask>
<g mask="url(#mask1)">
<path fill-rule="evenodd" clip-rule="evenodd" d="M433 77H545V77.9474H433V77ZM433 80.7895H545V81.7368H433V80.7895ZM545 84.5789H433V85.5263H545V84.5789ZM433 88.3684H545V89.3158H433V88.3684ZM545 92.1579H433V93.1053H545V92.1579Z" fill="black" fill-opacity="0.15"/>
<path fill-rule="evenodd" clip-rule="evenodd" d="M433 79.8421H545V80.7895H433V79.8421ZM433 83.6316H545V84.5789H433V83.6316ZM545 87.421H433V88.3684H545V87.421ZM433 91.2105H545V92.1579H433V91.2105ZM545 95H433V95.9474H545V95Z" fill="white" fill-opacity="0.03"/>
<path fill-rule="evenodd" clip-rule="evenodd" d="M433.801 77.8337H434.761V95.1137H433.801V77.8337ZM437.641 77.8337H438.601V95.1137H437.641V77.8337ZM442.441 77.8337H441.481V95.1137H442.441V77.8337ZM444.361 77.8337H445.321V95.1137H444.361V77.8337ZM449.161 77.8337H448.201V95.1137H449.161V77.8337ZM452.041 77.8337H453.001V95.1137H452.041V77.8337ZM456.841 77.8337H455.881V95.1137H456.841V77.8337ZM458.761 77.8337H459.721V95.1137H458.761V77.8337ZM463.561 77.8337H462.601V95.1137H463.561V77.8337ZM466.441 77.8337H467.401V95.1137H466.441V77.8337ZM471.241 77.8337H470.281V95.1137H471.241V77.8337ZM473.161 77.8337H474.121V95.1137H473.161V77.8337ZM477.961 77.8337H477.001V95.1137H477.961V77.8337ZM480.841 77.8337H481.801V95.1137H480.841V77.8337ZM485.641 77.8337H484.681V95.1137H485.641V77.8337ZM487.561 77.8337H488.521V95.1137H487.561V77.8337ZM492.361 77.8337H491.401V95.1137H492.361V77.8337ZM495.241 77.8337H496.201V95.1137H495.241V77.8337ZM500.041 77.8337H499.081V95.1137H500.041V77.8337ZM501.961 77.8337H502.921V95.1137H501.961V77.8337ZM506.761 77.8337H505.801V95.1137H506.761V77.8337ZM509.641 77.8337H510.601V95.1137H509.641V77.8337ZM514.441 77.8337H513.481V95.1137H514.441V77.8337ZM516.361 77.8337H517.321V95.1137H516.361V77.8337ZM521.161 77.8337H520.201V95.1137H521.161V77.8337ZM524.041 77.8337H525.001V95.1137H524.041V77.8337ZM528.841 77.8337H527.881V95.1137H528.841V77.8337ZM530.761 77.8337H531.721V95.1137H530.761V77.8337ZM535.561 77.8337H534.601V95.1137H535.561V77.8337ZM538.441 77.8337H539.401V95.1137H538.441V77.8337ZM543.241 77.8337H542.281V95.1137H543.241V77.8337Z" fill="black" fill-opacity="0.15"/>
<path fill-rule="evenodd" clip-rule="evenodd" d="M431.887 77.8337H432.847V95.1137H431.887V77.8337ZM435.727 77.8337H436.687V95.1137H435.727V77.8337ZM440.527 77.8337H439.567V95.1137H440.527V77.8337ZM442.447 77.8337H443.407V95.1137H442.447V77.8337ZM447.247 77.8337H446.287V95.1137H447.247V77.8337ZM450.127 77.8337H451.087V95.1137H450.127V77.8337ZM454.927 77.8337H453.967V95.1137H454.927V77.8337ZM456.847 77.8337H457.807V95.1137H456.847V77.8337ZM461.647 77.8337H460.687V95.1137H461.647V77.8337ZM464.527 77.8337H465.487V95.1137H464.527V77.8337ZM469.327 77.8337H468.367V95.1137H469.327V77.8337ZM471.247 77.8337H472.207V95.1137H471.247V77.8337ZM476.047 77.8337H475.087V95.1137H476.047V77.8337ZM478.927 77.8337H479.887V95.1137H478.927V77.8337ZM483.727 77.8337H482.767V95.1137H483.727V77.8337ZM485.647 77.8337H486.607V95.1137H485.647V77.8337ZM490.447 77.8337H489.487V95.1137H490.447V77.8337ZM493.327 77.8337H494.287V95.1137H493.327V77.8337ZM498.127 77.8337H497.167V95.1137H498.127V77.8337ZM500.047 77.8337H501.007V95.1137H500.047V77.8337ZM504.847 77.8337H503.887V95.1137H504.847V77.8337ZM507.727 77.8337H508.687V95.1137H507.727V77.8337ZM512.527 77.8337H511.567V95.1137H512.527V77.8337ZM514.447 77.8337H515.407V95.1137H514.447V77.8337ZM519.247 77.8337H518.287V95.1137H519.247V77.8337ZM522.127 77.8337H523.087V95.1137H522.127V77.8337ZM526.927 77.8337H525.967V95.1137H526.927V77.8337ZM528.847 77.8337H529.807V95.1137H528.847V77.8337ZM533.647 77.8337H532.687V95.1137H533.647V77.8337ZM536.527 77.8337H537.487V95.1137H536.527V77.8337ZM541.327 77.8337H540.367V95.1137H541.327V77.8337Z" fill="white" fill-opacity="0.03"/>
</g>
<g opacity="0.244441" filter="url(#filter9_iii)">
<rect x="433" y="77" width="112" height="18" rx="9" fill="black" fill-opacity="0.01"/>
</g>
<mask id="mask2" mask-type="alpha" maskUnits="userSpaceOnUse" x="433" y="77" width="112" height="18">
<rect x="433" y="77" width="112" height="18" rx="9" fill="white"/>
</mask>
<g mask="url(#mask2)">
</g>
</g>
<g clip-path="url(#clip2)">
<circle cx="585.5" cy="85.5" r="12.5" fill="url(#paint7_radial)"/>
<g opacity="0.387535" filter="url(#filter10_dd)">
<circle cx="585.5" cy="85.5" r="7.5" fill="url(#paint8_radial)"/>
</g>
<mask id="mask3" mask-type="alpha" maskUnits="userSpaceOnUse" x="578" y="78" width="15" height="15">
<circle cx="585.5" cy="85.5" r="7.5" fill="white"/>
</mask>
<g mask="url(#mask3)">
<g filter="url(#filter11_f)">
<ellipse cx="579.514" cy="84.5156" rx="6.19729" ry="2.07688" transform="rotate(-76 579.514 84.5156)" fill="#3E89CC"/>
</g>
<g filter="url(#filter12_f)">
<ellipse cx="590.5" cy="83.5" rx="4.5" ry="5.5" fill="#1C5894"/>
</g>
<g filter="url(#filter13_f)">
<ellipse cx="586.524" cy="91.0672" rx="6.55647" ry="4.43167" transform="rotate(-16 586.524 91.0672)" fill="#0A152B"/>
</g>
</g>
</g>
<defs>
<filter id="filter0_ii" x="4" y="0" width="970" height="1934" filterUnits="userSpaceOnUse" color-interpolation-filters="sRGB">
<feFlood flood-opacity="0" result="BackgroundImageFix"/>
<feBlend mode="normal" in="SourceGraphic" in2="BackgroundImageFix" result="shape"/>
<feColorMatrix in="SourceAlpha" type="matrix" values="0 0 0 0 0 0 0 0 0 0 0 0 0 0 0 0 0 0 127 0" result="hardAlpha"/>
<feOffset/>
<feGaussianBlur stdDeviation="6.5"/>
<feComposite in2="hardAlpha" operator="arithmetic" k2="-1" k3="1"/>
<feColorMatrix type="matrix" values="0 0 0 0 0.109804 0 0 0 0 0.105882 0 0 0 0 0.129412 0 0 0 1 0"/>
<feBlend mode="normal" in2="shape" result="effect1_innerShadow"/>
<feColorMatrix in="SourceAlpha" type="matrix" values="0 0 0 0 0 0 0 0 0 0 0 0 0 0 0 0 0 0 127 0" result="hardAlpha"/>
<feOffset/>
<feGaussianBlur stdDeviation="4"/>
<feComposite in2="hardAlpha" operator="arithmetic" k2="-1" k3="1"/>
<feColorMatrix type="matrix" values="0 0 0 0 0 0 0 0 0 0 0 0 0 0 0 0 0 0 0.752349 0"/>
<feBlend mode="normal" in2="effect1_innerShadow" result="effect2_innerShadow"/>
</filter>
<filter id="filter1_d" x="24" y="20" width="930" height="1894" filterUnits="userSpaceOnUse" color-interpolation-filters="sRGB">
<feFlood flood-opacity="0" result="BackgroundImageFix"/>
<feColorMatrix in="SourceAlpha" type="matrix" values="0 0 0 0 0 0 0 0 0 0 0 0 0 0 0 0 0 0 127 0"/>
<feOffset/>
<feColorMatrix type="matrix" values="0 0 0 0 0 0 0 0 0 0 0 0 0 0 0 0 0 0 0.250849 0"/>
<feBlend mode="normal" in2="BackgroundImageFix" result="effect1_dropShadow"/>
<feBlend mode="normal" in="SourceGraphic" in2="effect1_dropShadow" result="shape"/>
</filter>
<filter id="filter2_i" x="446.557" y="1931" width="86.8865" height="4" filterUnits="userSpaceOnUse" color-interpolation-filters="sRGB">
<feFlood flood-opacity="0" result="BackgroundImageFix"/>
<feBlend mode="normal" in="SourceGraphic" in2="BackgroundImageFix" result="shape"/>
<feColorMatrix in="SourceAlpha" type="matrix" values="0 0 0 0 0 0 0 0 0 0 0 0 0 0 0 0 0 0 127 0" result="hardAlpha"/>
<feOffset dy="1"/>
<feGaussianBlur stdDeviation="1"/>
<feComposite in2="hardAlpha" operator="arithmetic" k2="-1" k3="1"/>
<feColorMatrix type="matrix" values="0 0 0 0 0.248432 0 0 0 0 0.248432 0 0 0 0 0.248432 0 0 0 1 0"/>
<feBlend mode="normal" in2="shape" result="effect1_innerShadow"/>
</filter>
<filter id="filter3_i" x="29" y="57.0409" width="69.3049" height="1831.13" filterUnits="userSpaceOnUse" color-interpolation-filters="sRGB">
<feFlood flood-opacity="0" result="BackgroundImageFix"/>
<feBlend mode="normal" in="SourceGraphic" in2="BackgroundImageFix" result="shape"/>
<feColorMatrix in="SourceAlpha" type="matrix" values="0 0 0 0 0 0 0 0 0 0 0 0 0 0 0 0 0 0 127 0" result="hardAlpha"/>
<feOffset dx="-5"/>
<feGaussianBlur stdDeviation="5"/>
<feComposite in2="hardAlpha" operator="arithmetic" k2="-1" k3="1"/>
<feColorMatrix type="matrix" values="0 0 0 0 0 0 0 0 0 0 0 0 0 0 0 0 0 0 0.7012 0"/>
<feBlend mode="normal" in2="shape" result="effect1_innerShadow"/>
</filter>
<filter id="filter4_i" x="874.7" y="57.0409" width="69.3049" height="1831.13" filterUnits="userSpaceOnUse" color-interpolation-filters="sRGB">
<feFlood flood-opacity="0" result="BackgroundImageFix"/>
<feBlend mode="normal" in="SourceGraphic" in2="BackgroundImageFix" result="shape"/>
<feColorMatrix in="SourceAlpha" type="matrix" values="0 0 0 0 0 0 0 0 0 0 0 0 0 0 0 0 0 0 127 0" result="hardAlpha"/>
<feOffset dx="-5"/>
<feGaussianBlur stdDeviation="5"/>
<feComposite in2="hardAlpha" operator="arithmetic" k2="-1" k3="1"/>
<feColorMatrix type="matrix" values="0 0 0 0 0 0 0 0 0 0 0 0 0 0 0 0 0 0 0.7012 0"/>
<feBlend mode="normal" in2="shape" result="effect1_innerShadow"/>
</filter>
<filter id="filter5_ii" x="0" y="262" width="8" height="77" filterUnits="userSpaceOnUse" color-interpolation-filters="sRGB">
<feFlood flood-opacity="0" result="BackgroundImageFix"/>
<feBlend mode="normal" in="SourceGraphic" in2="BackgroundImageFix" result="shape"/>
<feColorMatrix in="SourceAlpha" type="matrix" values="0 0 0 0 0 0 0 0 0 0 0 0 0 0 0 0 0 0 127 0" result="hardAlpha"/>
<feOffset dy="5"/>
<feGaussianBlur stdDeviation="1"/>
<feComposite in2="hardAlpha" operator="arithmetic" k2="-1" k3="1"/>
<feColorMatrix type="matrix" values="0 0 0 0 0 0 0 0 0 0 0 0 0 0 0 0 0 0 0.65257 0"/>
<feBlend mode="normal" in2="shape" result="effect1_innerShadow"/>
<feColorMatrix in="SourceAlpha" type="matrix" values="0 0 0 0 0 0 0 0 0 0 0 0 0 0 0 0 0 0 127 0" result="hardAlpha"/>
<feOffset dy="-5"/>
<feGaussianBlur stdDeviation="1"/>
<feComposite in2="hardAlpha" operator="arithmetic" k2="-1" k3="1"/>
<feColorMatrix type="matrix" values="0 0 0 0 0 0 0 0 0 0 0 0 0 0 0 0 0 0 0.648749 0"/>
<feBlend mode="normal" in2="effect1_innerShadow" result="effect2_innerShadow"/>
</filter>
<filter id="filter6_ii" x="0" y="393" width="8" height="140" filterUnits="userSpaceOnUse" color-interpolation-filters="sRGB">
<feFlood flood-opacity="0" result="BackgroundImageFix"/>
<feBlend mode="normal" in="SourceGraphic" in2="BackgroundImageFix" result="shape"/>
<feColorMatrix in="SourceAlpha" type="matrix" values="0 0 0 0 0 0 0 0 0 0 0 0 0 0 0 0 0 0 127 0" result="hardAlpha"/>
<feOffset dy="5"/>
<feGaussianBlur stdDeviation="1"/>
<feComposite in2="hardAlpha" operator="arithmetic" k2="-1" k3="1"/>
<feColorMatrix type="matrix" values="0 0 0 0 0 0 0 0 0 0 0 0 0 0 0 0 0 0 0.65257 0"/>
<feBlend mode="normal" in2="shape" result="effect1_innerShadow"/>
<feColorMatrix in="SourceAlpha" type="matrix" values="0 0 0 0 0 0 0 0 0 0 0 0 0 0 0 0 0 0 127 0" result="hardAlpha"/>
<feOffset dy="-5"/>
<feGaussianBlur stdDeviation="1"/>
<feComposite in2="hardAlpha" operator="arithmetic" k2="-1" k3="1"/>
<feColorMatrix type="matrix" values="0 0 0 0 0 0 0 0 0 0 0 0 0 0 0 0 0 0 0.648749 0"/>
<feBlend mode="normal" in2="effect1_innerShadow" result="effect2_innerShadow"/>
</filter>
<filter id="filter7_ii" x="0" y="561" width="8" height="140" filterUnits="userSpaceOnUse" color-interpolation-filters="sRGB">
<feFlood flood-opacity="0" result="BackgroundImageFix"/>
<feBlend mode="normal" in="SourceGraphic" in2="BackgroundImageFix" result="shape"/>
<feColorMatrix in="SourceAlpha" type="matrix" values="0 0 0 0 0 0 0 0 0 0 0 0 0 0 0 0 0 0 127 0" result="hardAlpha"/>
<feOffset dy="5"/>
<feGaussianBlur stdDeviation="1"/>
<feComposite in2="hardAlpha" operator="arithmetic" k2="-1" k3="1"/>
<feColorMatrix type="matrix" values="0 0 0 0 0 0 0 0 0 0 0 0 0 0 0 0 0 0 0.65257 0"/>
<feBlend mode="normal" in2="shape" result="effect1_innerShadow"/>
<feColorMatrix in="SourceAlpha" type="matrix" values="0 0 0 0 0 0 0 0 0 0 0 0 0 0 0 0 0 0 127 0" result="hardAlpha"/>
<feOffset dy="-5"/>
<feGaussianBlur stdDeviation="1"/>
<feComposite in2="hardAlpha" operator="arithmetic" k2="-1" k3="1"/>
<feColorMatrix type="matrix" values="0 0 0 0 0 0 0 0 0 0 0 0 0 0 0 0 0 0 0.648749 0"/>
<feBlend mode="normal" in2="effect1_innerShadow" result="effect2_innerShadow"/>
</filter>
<filter id="filter8_ii" x="971" y="439" width="8" height="218" filterUnits="userSpaceOnUse" color-interpolation-filters="sRGB">
<feFlood flood-opacity="0" result="BackgroundImageFix"/>
<feBlend mode="normal" in="SourceGraphic" in2="BackgroundImageFix" result="shape"/>
<feColorMatrix in="SourceAlpha" type="matrix" values="0 0 0 0 0 0 0 0 0 0 0 0 0 0 0 0 0 0 127 0" result="hardAlpha"/>
<feOffset dy="5"/>
<feGaussianBlur stdDeviation="1"/>
<feComposite in2="hardAlpha" operator="arithmetic" k2="-1" k3="1"/>
<feColorMatrix type="matrix" values="0 0 0 0 0 0 0 0 0 0 0 0 0 0 0 0 0 0 0.498953 0"/>
<feBlend mode="normal" in2="shape" result="effect1_innerShadow"/>
<feColorMatrix in="SourceAlpha" type="matrix" values="0 0 0 0 0 0 0 0 0 0 0 0 0 0 0 0 0 0 127 0" result="hardAlpha"/>
<feOffset dy="-5"/>
<feGaussianBlur stdDeviation="1"/>
<feComposite in2="hardAlpha" operator="arithmetic" k2="-1" k3="1"/>
<feColorMatrix type="matrix" values="0 0 0 0 0 0 0 0 0 0 0 0 0 0 0 0 0 0 0.497368 0"/>
<feBlend mode="normal" in2="effect1_innerShadow" result="effect2_innerShadow"/>
</filter>
<filter id="filter9_iii" x="433" y="77" width="112" height="18" filterUnits="userSpaceOnUse" color-interpolation-filters="sRGB">
<feFlood flood-opacity="0" result="BackgroundImageFix"/>
<feBlend mode="normal" in="SourceGraphic" in2="BackgroundImageFix" result="shape"/>
<feColorMatrix in="SourceAlpha" type="matrix" values="0 0 0 0 0 0 0 0 0 0 0 0 0 0 0 0 0 0 127 0" result="hardAlpha"/>
<feMorphology radius="3" operator="erode" in="SourceAlpha" result="effect1_innerShadow"/>
<feOffset/>
<feGaussianBlur stdDeviation="1.5"/>
<feComposite in2="hardAlpha" operator="arithmetic" k2="-1" k3="1"/>
<feColorMatrix type="matrix" values="0 0 0 0 0 0 0 0 0 0 0 0 0 0 0 0 0 0 0.795035 0"/>
<feBlend mode="normal" in2="shape" result="effect1_innerShadow"/>
<feColorMatrix in="SourceAlpha" type="matrix" values="0 0 0 0 0 0 0 0 0 0 0 0 0 0 0 0 0 0 127 0" result="hardAlpha"/>
<feOffset dy="-3"/>
<feComposite in2="hardAlpha" operator="arithmetic" k2="-1" k3="1"/>
<feColorMatrix type="matrix" values="0 0 0 0 0 0 0 0 0 0 0 0 0 0 0 0 0 0 0.80013 0"/>
<feBlend mode="normal" in2="effect1_innerShadow" result="effect2_innerShadow"/>
<feColorMatrix in="SourceAlpha" type="matrix" values="0 0 0 0 0 0 0 0 0 0 0 0 0 0 0 0 0 0 127 0" result="hardAlpha"/>
<feOffset dy="-2"/>
<feComposite in2="hardAlpha" operator="arithmetic" k2="-1" k3="1"/>
<feColorMatrix type="matrix" values="0 0 0 0 1 0 0 0 0 1 0 0 0 0 1 0 0 0 0.197067 0"/>
<feBlend mode="normal" in2="effect2_innerShadow" result="effect3_innerShadow"/>
</filter>
<filter id="filter10_dd" x="570" y="70" width="31" height="31" filterUnits="userSpaceOnUse" color-interpolation-filters="sRGB">
<feFlood flood-opacity="0" result="BackgroundImageFix"/>
<feColorMatrix in="SourceAlpha" type="matrix" values="0 0 0 0 0 0 0 0 0 0 0 0 0 0 0 0 0 0 127 0"/>
<feMorphology radius="4" operator="dilate" in="SourceAlpha" result="effect1_dropShadow"/>
<feOffset/>
<feGaussianBlur stdDeviation="2"/>
<feColorMatrix type="matrix" values="0 0 0 0 0 0 0 0 0 0 0 0 0 0 0 0 0 0 0.4 0"/>
<feBlend mode="normal" in2="BackgroundImageFix" result="effect1_dropShadow"/>
<feColorMatrix in="SourceAlpha" type="matrix" values="0 0 0 0 0 0 0 0 0 0 0 0 0 0 0 0 0 0 127 0"/>
<feMorphology radius="2" operator="dilate" in="SourceAlpha" result="effect2_dropShadow"/>
<feOffset/>
<feColorMatrix type="matrix" values="0 0 0 0 0 0 0 0 0 0 0 0 0 0 0 0 0 0 1 0"/>
<feBlend mode="normal" in2="effect1_dropShadow" result="effect2_dropShadow"/>
<feBlend mode="normal" in="SourceGraphic" in2="effect2_dropShadow" result="shape"/>
</filter>
<filter id="filter11_f" x="572.925" y="74.4037" width="13.1786" height="20.2238" filterUnits="userSpaceOnUse" color-interpolation-filters="sRGB">
<feFlood flood-opacity="0" result="BackgroundImageFix"/>
<feBlend mode="normal" in="SourceGraphic" in2="BackgroundImageFix" result="shape"/>
<feGaussianBlur stdDeviation="2.03871" result="effect1_foregroundBlur"/>
</filter>
<filter id="filter12_f" x="581.923" y="73.9226" width="17.1548" height="19.1548" filterUnits="userSpaceOnUse" color-interpolation-filters="sRGB">
<feFlood flood-opacity="0" result="BackgroundImageFix"/>
<feBlend mode="normal" in="SourceGraphic" in2="BackgroundImageFix" result="shape"/>
<feGaussianBlur stdDeviation="2.03871" result="effect1_foregroundBlur"/>
</filter>
<filter id="filter13_f" x="577.042" y="83.3773" width="18.9644" height="15.3799" filterUnits="userSpaceOnUse" color-interpolation-filters="sRGB">
<feFlood flood-opacity="0" result="BackgroundImageFix"/>
<feBlend mode="normal" in="SourceGraphic" in2="BackgroundImageFix" result="shape"/>
<feGaussianBlur stdDeviation="1.53063" result="effect1_foregroundBlur"/>
</filter>
<linearGradient id="paint0_linear" x1="24" y1="20" x2="24" y2="1914" gradientUnits="userSpaceOnUse">
<stop stop-color="#2A2A2C"/>
<stop offset="1" stop-color="#262627"/>
</linearGradient>
<linearGradient id="paint1_linear" x1="34" y1="30" x2="34" y2="1904" gradientUnits="userSpaceOnUse">
<stop stop-color="#676767"/>
<stop offset="0.0213301"/>
<stop offset="0.978505"/>
<stop offset="1" stop-color="#676767"/>
</linearGradient>
<linearGradient id="paint2_linear" x1="2.17452" y1="306.871" x2="4.37351" y2="306.871" gradientUnits="userSpaceOnUse">
<stop stop-color="#4E4D52"/>
<stop offset="0.00734796" stop-color="#636369"/>
<stop offset="0.903834" stop-color="#636369"/>
<stop offset="1" stop-color="#4A4950"/>
</linearGradient>
<linearGradient id="paint3_linear" x1="2.17452" y1="474.87" x2="4.37351" y2="474.87" gradientUnits="userSpaceOnUse">
<stop stop-color="#4E4D52"/>
<stop offset="0.00734796" stop-color="#636369"/>
<stop offset="0.903834" stop-color="#636369"/>
<stop offset="1" stop-color="#4A4950"/>
</linearGradient>
<linearGradient id="paint4_linear" x1="2.17452" y1="642.87" x2="4.37351" y2="642.87" gradientUnits="userSpaceOnUse">
<stop stop-color="#4E4D52"/>
<stop offset="0.00734796" stop-color="#636369"/>
<stop offset="0.903834" stop-color="#636369"/>
<stop offset="1" stop-color="#4A4950"/>
</linearGradient>
<linearGradient id="paint5_linear" x1="976.236" y1="538.919" x2="976.113" y2="538.919" gradientUnits="userSpaceOnUse">
<stop stop-color="#3B3B40"/>
<stop offset="1" stop-color="#606166"/>
</linearGradient>
<linearGradient id="paint6_linear" x1="979" y1="441" x2="979" y2="655" gradientUnits="userSpaceOnUse">
<stop stop-opacity="0.996971"/>
<stop offset="0.0951211" stop-opacity="0.01"/>
<stop offset="0.895463" stop-opacity="0.01"/>
<stop offset="1"/>
</linearGradient>
<radialGradient id="paint7_radial" cx="0" cy="0" r="1" gradientUnits="userSpaceOnUse" gradientTransform="translate(603.265 106.531) rotate(45.1938) scale(25.1653)">
<stop stop-color="#434343"/>
<stop offset="1" stop-color="#121212"/>
</radialGradient>
<radialGradient id="paint8_radial" cx="0" cy="0" r="1" gradientUnits="userSpaceOnUse" gradientTransform="translate(585.5 78) rotate(90) scale(15)">
<stop stop-color="#2A4893"/>
<stop offset="1" stop-color="#213054"/>
</radialGradient>
<clipPath id="clip0">
<rect width="979" height="435" fill="white" transform="translate(0 264)"/>
</clipPath>
<clipPath id="clip1">
<rect width="112" height="18" fill="white" transform="translate(433 77)"/>
</clipPath>
<clipPath id="clip2">
<rect width="25" height="25" fill="white" transform="translate(573 73)"/>
</clipPath>
</defs>
</svg>
