<svg width="1792" height="828" viewBox="0 0 1792 828" fill="none" xmlns="http://www.w3.org/2000/svg">
<defs>
  <clipPath id="mask" clipPathUnits="objectBoundingBox">
    <path clip-rule="evenodd" d="M0,0.793 C0,0.785,0.003,0.778,0.007,0.778 C0.014,0.777,0.018,0.774,0.022,0.77 C0.027,0.764,0.031,0.756,0.033,0.746 C0.036,0.736,0.037,0.725,0.037,0.705 L0.037,0.295 C0.037,0.275,0.036,0.264,0.033,0.254 C0.031,0.244,0.027,0.236,0.022,0.23 C0.018,0.226,0.014,0.223,0.007,0.222 C0.003,0.222,0,0.215,0,0.207 L0,0.129 C0,0.084,0.002,0.068,0.006,0.051 C0.01,0.035,0.016,0.022,0.024,0.013 C0.031,0.005,0.039,0,0.059,0 L0.941,0 C0.961,0,0.969,0.005,0.976,0.013 C0.984,0.022,0.99,0.035,0.994,0.051 C0.998,0.068,1,0.084,1,0.129 V0.871 C1,0.916,0.998,0.932,0.994,0.949 C0.99,0.965,0.984,0.978,0.976,0.987 C0.969,0.995,0.961,1,0.941,1 L0.059,1 C0.039,1,0.031,0.995,0.024,0.987 C0.016,0.978,0.01,0.965,0.006,0.949 C0.002,0.932,0,0.916,0,0.871 L0,0.793"/>
  </clipPath>
</defs>
</svg>
